<svg width="14" height="14" viewBox="0 0 14 14" fill="none" xmlns="http://www.w3.org/2000/svg">
<path d="M2.34502 3.48258C1.60419 4.46258 1.16669 5.68175 1.16669 7.00008C1.16669 10.2201 3.78002 12.8334 7.00002 12.8334C10.22 12.8334 12.8334 10.2201 12.8334 7.00008C12.8334 3.78008 10.22 1.16675 7.00002 1.16675" stroke="#AC228E" stroke-width="0.875" stroke-linecap="round" stroke-linejoin="round"/>
<path d="M2.91669 7.00008C2.91669 9.25758 4.74252 11.0834 7.00002 11.0834C9.25752 11.0834 11.0834 9.25758 11.0834 7.00008C11.0834 4.74258 9.25752 2.91675 7.00002 2.91675" stroke="#AC228E" stroke-width="0.875" stroke-linecap="round" stroke-linejoin="round"/>
<path d="M7 9.33342C8.28917 9.33342 9.33333 8.28925 9.33333 7.00008C9.33333 5.71091 8.28917 4.66675 7 4.66675" stroke="#AC228E" stroke-width="0.875" stroke-linecap="round" stroke-linejoin="round"/>
</svg>
