<svg width="15" height="17" viewBox="0 0 15 17" fill="none" xmlns="http://www.w3.org/2000/svg">
<path d="M14 3.06538C14 6.78102 13.1872 10.0953 11.9227 12.4447C10.6363 14.8349 9.02668 16 7.49999 16C5.9733 16 4.36373 14.8349 3.07726 12.4447C1.81276 10.0953 1 6.78102 1 3.06538C1 2.18009 1.04859 1.58608 1.12231 1.20392C1.25281 1.30061 1.40962 1.42812 1.59897 1.59052C1.71178 1.68728 1.83406 1.79493 1.96453 1.90981C2.5584 2.43267 3.32218 3.10512 4.13661 3.58038C4.95729 4.05929 5.96846 4.42341 7.06531 4.23374C7.39752 4.66274 7.78888 4.99258 8.25418 5.18411C8.97075 5.47908 9.67307 5.36964 10.2566 5.12198C10.822 4.88197 11.3388 4.48858 11.7821 4.09351C12.2315 3.69301 12.6622 3.23828 13.0401 2.83597C13.064 2.81052 13.0877 2.78533 13.1111 2.76041C13.4305 2.42025 13.7029 2.13018 13.9459 1.9017C13.9781 2.17921 14 2.55818 14 3.06538ZM0.768422 0.988223C0.768269 0.987912 0.772097 0.988907 0.780365 0.992139C0.772709 0.990149 0.768575 0.988533 0.768422 0.988223ZM14.4095 1.53562C14.4095 1.53564 14.4089 1.53589 14.4078 1.53631L14.4095 1.53562ZM13.8228 1.33252C13.8219 1.33086 13.8214 1.32997 13.8214 1.32994C13.8214 1.3299 13.8219 1.33073 13.8228 1.33252Z" fill="#FFFFFD" stroke="#7594AB" stroke-width="2"/>
</svg>
