<svg width="40" height="35" viewBox="0 0 40 35" fill="none" xmlns="http://www.w3.org/2000/svg">
<path d="M38.4873 30.2549C38.4873 31.3955 38.3127 32.0647 38.1187 32.4384C37.9545 32.7547 37.7679 32.8859 37.5219 32.9602C37.2122 33.0538 36.7149 33.0768 35.9578 32.9278C35.2137 32.7813 34.3326 32.4921 33.3183 32.0821C31.8252 31.4786 30.1911 30.6773 28.4308 29.8141C27.7721 29.4911 27.0957 29.1595 26.4024 28.8262C23.9261 27.6361 21.2748 26.4483 18.7396 25.7764C15.8539 24.8616 13.231 24.4425 10.9581 24.1656C10.2318 24.0771 9.56004 24.0044 8.93413 23.9367C7.53187 23.7851 6.35952 23.6583 5.31741 23.4336C3.86472 23.1204 3.02919 22.6797 2.49757 21.994C1.94625 21.2829 1.51275 20.0385 1.51275 17.6487C1.51275 13.4062 4.00744 10.9329 7.88523 8.64446C9.23591 7.84737 10.6702 7.12037 12.1748 6.35776C12.8633 6.00881 13.5664 5.6524 14.283 5.2784C16.1196 4.31991 17.9949 3.2688 19.7123 2.00773C23.142 5.3984 27.6164 9.96572 31.3543 14.8448C35.5038 20.2612 38.4873 25.7399 38.4873 30.2549Z" fill="#FFFFFD" stroke="#7594AB" stroke-width="3"/>
</svg>
