<svg width="15" height="10" viewBox="0 0 15 10" fill="none" xmlns="http://www.w3.org/2000/svg">
<path d="M14 1.63376C14 5.17392 11.0991 8.06051 7.5 8.06051C3.90088 8.06051 1 5.17392 1 1.63376C1 1.35352 1.01926 1.16221 1.04178 1.03662C1.04306 1.03698 1.04434 1.03734 1.04564 1.03771C1.24143 1.09321 1.4939 1.19705 1.83426 1.35263C1.95034 1.4057 2.07514 1.46423 2.20749 1.52631C2.80242 1.80534 3.54993 2.15594 4.34365 2.4028C5.19612 2.66793 6.1731 2.8399 7.21369 2.70112C8.13144 3.3714 9.15983 3.42425 10.0865 3.21461C11.0909 2.98741 12.0676 2.43458 12.8048 2.01635C12.8289 2.00266 12.8528 1.98911 12.8764 1.97571C13.2378 1.77058 13.5382 1.60004 13.8054 1.47196C13.874 1.43908 13.936 1.41122 13.9918 1.38792C13.9967 1.45529 14 1.53655 14 1.63376Z" fill="#FFFFFD" stroke="#7594AB" stroke-width="2"/>
</svg>
