<svg width="12" height="12" viewBox="0 0 12 12" fill="none" xmlns="http://www.w3.org/2000/svg">
<path d="M7.69501 2.605L8.4 4.015C8.495 4.21 8.75 4.39499 8.965 4.43499L10.24 4.64499C11.055 4.77999 11.245 5.37 10.66 5.96L9.665 6.955C9.5 7.12 9.40501 7.445 9.46001 7.68L9.745 8.91C9.97 9.88 9.45001 10.26 8.59501 9.75L7.4 9.04C7.185 8.91 6.82501 8.91 6.61001 9.04L5.415 9.75C4.56 10.255 4.04001 9.88 4.26501 8.91L4.55001 7.68C4.60501 7.45 4.51001 7.125 4.34501 6.955L3.35001 5.96C2.76501 5.375 2.95501 4.78499 3.77001 4.64499L5.045 4.43499C5.26 4.39999 5.51501 4.21 5.61001 4.015L6.31501 2.605C6.69001 1.84 7.31001 1.84 7.69501 2.605Z" stroke="#8A6103" stroke-width="0.75" stroke-linecap="round" stroke-linejoin="round"/>
<path d="M4 2.5H1" stroke="#8A6103" stroke-width="0.75" stroke-linecap="round" stroke-linejoin="round"/>
<path d="M2.5 9.5H1" stroke="#8A6103" stroke-width="0.75" stroke-linecap="round" stroke-linejoin="round"/>
<path d="M1.5 6H1" stroke="#8A6103" stroke-width="0.75" stroke-linecap="round" stroke-linejoin="round"/>
</svg>
